<?xml version="1.0" encoding="utf-8"?>
<!-- Generator: Adobe Illustrator 16.0.0, SVG Export Plug-In . SVG Version: 6.00 Build 0)  -->
<!DOCTYPE svg PUBLIC "-//W3C//DTD SVG 1.1//EN" "http://www.w3.org/Graphics/SVG/1.1/DTD/svg11.dtd">
<svg version="1.1" xmlns="http://www.w3.org/2000/svg" xmlns:xlink="http://www.w3.org/1999/xlink" x="0px" y="0px" width="1000px"
	 height="1000px" viewBox="0 0 1000 1000" enable-background="new 0 0 1000 1000" xml:space="preserve">
<g id="Layer_1">
	<g>
		<path d="M553.734,588.854c0,0,98.268-76.832,87.768-118.331c-9.59-37.904-83.25-110-83.25-110l18.797-13.668l98.703,42.668
			l42.5,75.5L602.234,574.854L553.734,588.854z"/>
		<path fill="#FFFFFF" stroke="#FFFFFF" stroke-width="10" stroke-miterlimit="10" d="M652.609,506.316
			c0,84.752-68.707,153.459-153.459,153.459c-84.756,0-153.462-68.707-153.462-153.459c0-84.756,68.706-153.461,153.462-153.461
			C583.902,352.855,652.609,421.561,652.609,506.316z"/>
		<path d="M458.751,422.523c0,0-106.16,80.961-104,119.999c2.16,39.039,55.5,87,55.5,87l-86.5-56.5l9-76.999l77.5-59.5
			L458.751,422.523z"/>
		<path stroke="#FFFFFF" stroke-width="10" stroke-miterlimit="10" d="M276.667,905.189c-76-29.333-3-99.999-3-99.999
			S708.65,565.639,720.984,554.973c12.332-10.666,49.584-54.184,37.25-110.184c28,91,40,120.4-16,174.9
			c-47,59-449.568,208.917-387.234,224.25c0,0,260,111.25,436-102.75s58-440.5,7-466.25
			C724.577,237.868,376.838,482.49,376.838,482.49s-119.29,77.681,77.558,165.015c-10.028,6.142-22.205,13.406-22.205,13.406
			s-267.549-83.27-119.08-220.563C453.579,342.387,725,193.139,725,193.139s91.5-29.699,148,32.301c0,0,220,312.752-44,596.251
			C586.607,1054.721,302.906,917.35,276.667,905.189z"/>
		<path stroke="#FFFFFF" stroke-width="10" stroke-miterlimit="10" d="M701,83.189c58.438,28.895,37.594,97.273,24,109.949
			S323.625,432.606,311.292,443.273c-12.333,10.666-49.479,54.25-37.145,110.249c-28-90.999-39.947-120.499,16.053-174.999
			C323.875,336.248,700.719,180.887,618,144.689c0,0-231.122-91.386-415.613,120.104S177.616,724.612,223,749.689
			c53.687,29.665,434.566-238.835,434.566-238.835s126.329-73.665-70.518-160.999c10.182-5.998,22.184-13.332,22.184-13.332
			s260.602,79.078,112.133,216.372C580.896,650.857,273.667,805.19,273.667,805.19S189,842.064,151,805.564
			c0,0-254.597-297.789,9.39-611.266C346.381-32.195,643.14,54.582,701,83.189z"/>
	</g>
</g>
<g id="Layer_2" display="none">
	<g display="inline">
		<path fill="#EDB0B0" d="M553.121,595.854c0,0,98.268-76.832,87.768-118.331c-9.59-37.904-83.25-110-83.25-110l18.798-13.668
			l98.702,42.668l42.5,75.5L601.621,581.854L553.121,595.854z"/>
		<path fill="#FFFFFF" stroke="#FFFFFF" stroke-width="5" stroke-miterlimit="10" d="M651.997,513.316
			c0,84.752-68.707,153.459-153.46,153.459c-84.755,0-153.461-68.707-153.461-153.459c0-84.756,68.706-153.461,153.461-153.461
			C583.29,359.855,651.997,428.561,651.997,513.316z"/>
		<path fill="#EDB0B0" d="M455.139,429.523c0,0-106.16,80.961-104,119.999c2.16,39.039,55.5,87,55.5,87l-86.5-56.5l9-76.999
			l77.5-59.5L455.139,429.523z"/>
		<linearGradient id="SVGID_1_" gradientUnits="userSpaceOnUse" x1="241.481" y1="578.2266" x2="958.3242" y2="578.2266">
			<stop  offset="0.6059" style="stop-color:#FF0000"/>
			<stop  offset="0.6946" style="stop-color:#FF547A"/>
			<stop  offset="0.7783" style="stop-color:#FF2A42"/>
		</linearGradient>
		<path fill="url(#SVGID_1_)" stroke="#FFFFFF" stroke-width="10" stroke-miterlimit="10" d="M276.055,912.189
			c-76-29.333-3-99.999-3-99.999s434.982-239.552,447.316-250.218c12.332-10.666,49.584-54.184,37.25-110.184
			c28,91,40,120.4-16,174.9c-47,59-449.566,208.917-387.234,224.25c0,0,260,111.25,436-102.75s58-440.5,7-466.25
			C723.965,244.868,376.225,489.49,376.225,489.49s-119.289,77.681,77.559,165.015c-10.029,6.142-22.205,13.406-22.205,13.406
			s-267.549-83.27-119.08-220.563c140.469-97.961,411.889-247.209,411.889-247.209s91.5-29.699,148,32.301
			c0,0,220,312.752-44,596.251C585.994,1061.721,302.293,924.35,276.055,912.189z"/>
		<linearGradient id="SVGID_2_" gradientUnits="userSpaceOnUse" x1="39.9648" y1="439.2744" x2="766.3516" y2="439.2744">
			<stop  offset="0.2709" style="stop-color:#031E5F"/>
			<stop  offset="0.4089" style="stop-color:#2015FF"/>
			<stop  offset="0.5123" style="stop-color:#031E5F"/>
		</linearGradient>
		<path fill="url(#SVGID_2_)" stroke="#FFFFFF" stroke-width="10" stroke-miterlimit="10" d="M700.387,90.189
			c58.439,28.895,37.594,97.273,24,109.949S323.012,439.606,310.68,450.273c-12.334,10.666-49.48,54.25-37.146,110.249
			c-28-90.999-39.947-120.499,16.053-174.999c33.676-42.275,410.52-197.637,327.801-233.834c0,0-231.121-91.386-415.612,120.104
			s-24.771,459.819,20.612,484.896c53.688,29.665,434.566-238.835,434.566-238.835s125.33-72.665-71.517-159.999
			c10.181-5.998,22.184-13.332,22.184-13.332s261.601,78.078,113.132,215.372C580.283,657.857,273.055,812.19,273.055,812.19
			s-84.668,36.874-122.668,0.374c0,0-254.597-297.789,9.391-611.266C345.768-25.195,642.527,61.582,700.387,90.189z"/>
	</g>
</g>
</svg>
